#!OML:ASF X:\für Bonn\!DataBase\2005_08_10_Bjorn_Final\c3d\bjorn.ASF
:FULLY-SPECIFIED
:DEGREES
169
root -0.939191 8.13921 18.8617 -206.502 23.3632 -550.145
lowerback 50.9018 -18.095 7.3388
upperback 24.0802 -5.52545 6.90882
thorax 6.84364 1.9363 6.67997
lowerneck 3.44775 -11.3163 9.54072
upperneck 14.8922 -14.0201 -0.808526
head 3.55552 -6.07572 -2.00978
rclavicle -1.49486e-013 8.74653e-014
rhumerus -3.81776 -46.5879 -48.872
rradius 16.4351
rwrist 10.8419
rhand -11.1225 6.29629
rfingers 7.12502
rthumb 14.9025 -23.1477
lclavicle -1.49486e-013 8.74653e-014
lhumerus -15.8584 -26.6457 59.4897
lradius 52.4464
lwrist 11.8738
lhand -36.0882 -361.936
lfingers 7.12502
lthumb -9.1949 27.8431
rfemur -84.4958 -46.5483 -1.0431
rtibia 136.608
rfoot -30.3426 46.3379
rtoes -15.8351
lfemur 3.32801 67.2678 77.8853
ltibia 147.16
lfoot -39.6816 -22.8338
ltoes -45.2119
170
root -0.910294 8.00904 18.8909 -207.307 23.0168 -550.246
lowerback 50.9285 -18.2278 7.20237
upperback 24.1008 -5.70345 6.74968
thorax 6.86907 1.89099 6.62663
lowerneck 3.66005 -11.2604 9.69993
upperneck 15.0429 -13.8761 -0.984125
head 3.55367 -5.98512 -2.08241
rclavicle -1.59028e-014 -2.54444e-014
rhumerus -5.57237 -44.0108 -48.3235
rradius 17.613
rwrist 7.64796
rhand -11.3884 6.34904
rfingers 7.12502
rthumb 14.6463 -23.1137
lclavicle -1.59028e-014 -2.54444e-014
lhumerus -16.8096 -26.0581 60.3191
lradius 51.8777
lwrist 11.6901
lhand -36.7479 -361.393
lfingers 7.12502
lthumb -9.83138 28.3572
rfemur -84.7413 -48.9949 -1.35066
rtibia 137.419
rfoot -31.1623 47.2608
rtoes -15.778
lfemur 5.92975 66.6946 81.8263
ltibia 147.706
lfoot -40.5576 -23.3949
ltoes -45.4638
171
root -0.880133 7.88076 18.9198 -208.083 22.6622 -550.27
lowerback 50.9018 -18.4033 7.11771
upperback 24.1799 -5.89455 6.57535
thorax 6.96738 1.85737 6.54353
lowerneck 3.76066 -11.2017 9.87005
upperneck 15.2272 -13.748 -1.13641
head 3.58507 -5.90007 -2.1592
rclavicle -3.81667e-014 -1.92424e-013
rhumerus -7.09166 -41.676 -48.0551
rradius 18.8473
rwrist 4.6495
rhand -11.6954 6.35105
rfingers 7.12502
rthumb 14.3505 -23.133
lclavicle -3.81667e-014 -1.92424e-013
lhumerus -17.5946 -25.1164 61.2156
lradius 51.0835
lwrist 11.0369
lhand -37.3601 -360.94
lfingers 7.12502
lthumb -10.4221 28.7815
rfemur -84.917 -51.5152 -1.662
rtibia 138.217
rfoot -32.0355 48.1819
rtoes -15.6471
lfemur 8.00351 66.0695 85.3417
ltibia 148.235
lfoot -41.3886 -23.9912
ltoes -45.7101
172
root -0.848303 7.75446 18.9483 -208.877 22.3099 -550.297
lowerback 50.8643 -18.5677 7.02003
upperback 24.274 -6.07911 6.38883
thorax 7.08193 1.82915 6.45079
lowerneck 3.82661 -11.1515 10.1002
upperneck 15.4628 -13.6266 -1.34509
head 3.63324 -5.81349 -2.26845
rclavicle 1.39944e-013 -1.95604e-013
rhumerus -8.52233 -39.3815 -47.962
rradius 20.1548
rwrist 1.93483
rhand -12.2274 6.04062
rfingers 7.12502
rthumb 13.8379 -23.4791
lclavicle 1.39944e-013 -1.95604e-013
lhumerus -18.3645 -24.0508 62.227
lradius 50.1963
lwrist 10.1692
lhand -38.1272 -360.294
lfingers 7.12502
lthumb -11.162 29.3887
rfemur -85.0515 -54.0943 -2.02232
rtibia 139.007
rfoot -33.1284 49.0239
rtoes -15.6862
lfemur 9.79223 65.3737 88.5514
ltibia 148.718
lfoot -42.2819 -24.5453
ltoes -45.9563
173
root -0.815698 7.62776 18.9759 -209.693 21.9348 -550.33
lowerback 50.7935 -18.7308 6.90002
upperback 24.4 -6.27093 6.18984
thorax 7.23572 1.80114 6.35723
lowerneck 3.82504 -11.1056 10.3102
upperneck 15.7339 -13.5223 -1.5339
head 3.7092 -5.73372 -2.37513
rclavicle 2.8625e-014 1.51076e-013
rhumerus -9.84289 -37.3386 -47.9937
rradius 21.486
rwrist -0.586906
rhand -12.7558 5.74837
rfingers 7.12502
rthumb 13.3286 -23.8054
lclavicle 2.8625e-014 1.51076e-013
lhumerus -19.1367 -22.988 63.3203
lradius 49.3285
lwrist 9.27322
lhand -38.9996 -359.522
lfingers 7.12502
lthumb -12.0032 30.1136
rfemur -85.0976 -56.8496 -2.51587
rtibia 139.787
rfoot -34.4351 49.8887
rtoes -15.7792
lfemur 11.1938 64.6533 91.3664
ltibia 149.195
lfoot -43.1964 -24.9897
ltoes -46.3037
174
root -0.781348 7.50314 19.0045 -210.522 21.5244 -550.324
lowerback 50.7579 -18.898 6.77803
upperback 24.5009 -6.46167 5.99526
thorax 7.35688 1.77331 6.2687
lowerneck 3.86488 -11.088 10.5576
upperneck 16.0247 -13.44 -1.76309
head 3.77887 -5.66153 -2.49893
rclavicle 5.40694e-014 1.01778e-013
rhumerus -11.1361 -35.516 -48.095
rradius 22.7867
rwrist -2.85269
rhand -13.2678 5.44614
rfingers 7.12502
rthumb 12.835 -24.1392
lclavicle 5.40694e-014 1.01778e-013
lhumerus -19.9623 -21.9116 64.4886
lradius 48.4926
lwrist 8.18906
lhand -39.7626 -358.554
lfingers 7.12502
lthumb -12.7389 31.0374
rfemur -84.9633 -59.6567 -3.15641
rtibia 140.545
rfoot -35.7857 50.7163
rtoes -15.6346
lfemur 11.9699 63.9452 93.5426
ltibia 149.615
lfoot -44.0272 -25.4105
ltoes -46.6397
175
root -0.745832 7.37935 19.0321 -211.36 21.1196 -550.334
lowerback 50.737 -19.0441 6.61225
upperback 24.5865 -6.66039 5.78029
thorax 7.45714 1.73414 6.17636
lowerneck 4.0603 -11.0605 10.8416
upperneck 16.2128 -13.3224 -1.9798
head 3.78478 -5.57448 -2.60994
rclavicle 6.36111e-014 1.82882e-013
rhumerus -12.3888 -33.9154 -48.2887
rradius 24.075
rwrist -4.79606
rhand -13.7291 5.2455
rfingers 7.12502
rthumb 12.3903 -24.3673
lclavicle 6.36111e-014 1.82882e-013
lhumerus -20.8626 -20.8131 65.6718
lradius 47.7307
lwrist 6.80278
lhand -40.2727 -357.46
lfingers 7.12502
lthumb -13.2306 32.1001
rfemur -84.7242 -62.5043 -3.96446
rtibia 141.292
rfoot -37.2161 51.5593
rtoes -15.5735
lfemur 12.7287 63.2172 95.7007
ltibia 150.012
lfoot -44.8588 -25.9113
ltoes -46.8513
176
root -0.708597 7.25816 19.0591 -212.218 20.6954 -550.335
lowerback 50.7394 -19.181 6.42008
upperback 24.6552 -6.86208 5.55954
thorax 7.53492 1.68968 6.08872
lowerneck 4.36939 -11.0582 11.2021
upperneck 16.3342 -13.2104 -2.2658
head 3.73637 -5.49106 -2.74531
rclavicle -4.45278e-014 1.00187e-013
rhumerus -13.5911 -32.4921 -48.5259
rradius 25.2919
rwrist -6.54192
rhand -14.1454 5.0601
rfingers 7.12502
rthumb 11.9889 -24.5765
lclavicle -4.45278e-014 1.00187e-013
lhumerus -21.8116 -19.8112 66.9188
lradius 47.035
lwrist 5.64604
lhand -40.6892 -356.432
lfingers 7.12502
lthumb -13.6321 33.102
rfemur -84.2038 -65.3865 -5.05221
rtibia 142.018
rfoot -38.7782 52.3442
rtoes -15.3981
lfemur 13.4401 62.4631 97.814
ltibia 150.378
lfoot -45.7559 -26.3623
ltoes -47.1047
177
root -0.67069 7.13762 19.0875 -213.094 20.2503 -550.313
lowerback 50.7447 -19.3227 6.19719
upperback 24.7503 -7.07597 5.30059
thorax 7.64057 1.64557 5.97812
lowerneck 4.67372 -11.0326 11.6178
upperneck 16.4581 -13.0659 -2.55136
head 3.69016 -5.38784 -2.892
rclavicle -1.33583e-013 -7.95139e-014
rhumerus -14.6912 -31.3738 -48.8791
rradius 26.3826
rwrist -7.86218
rhand -14.5565 4.99802
rfingers 7.12502
rthumb 11.5925 -24.6613
lclavicle -1.33583e-013 -7.95139e-014
lhumerus -22.8012 -19.1139 68.2209
lradius 46.4151
lwrist 5.33263
lhand -41.439 -355.597
lfingers 7.12502
lthumb -14.3547 33.8871
rfemur -83.3048 -68.3124 -6.52978
rtibia 142.734
rfoot -40.5169 53.0444
rtoes -15.3159
lfemur 13.6386 61.7635 99.3894
ltibia 150.713
lfoot -46.4833 -26.8808
ltoes -47.2155
178
root -0.630787 7.02051 19.1146 -213.974 19.8097 -550.319
lowerback 50.6772 -19.4245 5.99231
upperback 24.8678 -7.25679 5.01248
thorax 7.77113 1.62289 5.8151
lowerneck 5.02635 -11.0449 11.987
upperneck 16.5342 -12.9741 -2.70722
head 3.62803 -5.30971 -2.9829
rclavicle 9.54166e-014 -3.49861e-014
rhumerus -15.8561 -30.5315 -49.2438
rradius 27.4378
rwrist -9.00131
rhand -14.9069 4.96244
rfingers 7.12502
rthumb 11.2545 -24.7156
lclavicle 9.54166e-014 -3.49861e-014
lhumerus -23.7275 -18.52 69.5354
lradius 45.7589
lwrist 5.03488
lhand -42.1638 -354.743
lfingers 7.12502
lthumb -15.053 34.6898
rfemur -82.0006 -71.1797 -8.45215
rtibia 143.428
rfoot -42.4233 53.5991
rtoes -15.2849
lfemur 13.7876 61.0759 100.834
ltibia 151.012
lfoot -47.2248 -27.2942
ltoes -47.3711
179
root -0.590059 6.90357 19.1423 -214.864 19.3395 -550.305
lowerback 50.6282 -19.5229 5.76729
upperback 24.9829 -7.43558 4.71892
thorax 7.8963 1.60147 5.65477
lowerneck 5.34841 -11.0543 12.3268
upperneck 16.649 -12.8793 -2.86226
head 3.5883 -5.22849 -3.07382
rclavicle -3.81667e-014 -1.22451e-013
rhumerus -17.0102 -29.807 -49.6137
rradius 28.4325
rwrist -9.90985
rhand -15.2221 4.91268
rfingers 7.12502
rthumb 10.9506 -24.7817
lclavicle -3.81667e-014 -1.22451e-013
lhumerus -24.6953 -17.7904 70.8959
lradius 45.1646
lwrist 4.65955
lhand -42.7008 -353.789
lfingers 7.12502
lthumb -15.5702 35.6039
rfemur -79.8643 -74.0702 -11.2358
rtibia 144.107
rfoot -44.2671 54.1996
rtoes -15.086
lfemur 13.6328 60.4287 101.955
ltibia 151.283
lfoot -47.8398 -27.8475
ltoes -47.3889
